<svg width="59" height="15" viewBox="0 0 59 15" fill="none" xmlns="http://www.w3.org/2000/svg">
<path d="M17.8279 0.276855H14.8438V11.8425H17.8279V0.276855Z" fill="black" fill-opacity="0.5"/>
<path d="M24.8136 12.1211C23.0702 12.1211 21.6224 11.5393 20.4645 10.3739C19.3085 9.21037 18.7305 7.77196 18.7305 6.06054C18.7305 4.34913 19.3085 2.91072 20.4645 1.74718C21.6205 0.58365 23.0702 0 24.8136 0C25.9545 0 26.9806 0.27488 27.89 0.820875C28.7994 1.36875 29.4621 2.1049 29.8801 3.02933L28.6318 3.74665C28.323 3.05192 27.826 2.50216 27.1388 2.09361C26.4535 1.68505 25.6778 1.47983 24.8136 1.47983C23.5333 1.47983 22.4545 1.92416 21.5753 2.80905C20.696 3.69582 20.2574 4.7784 20.2574 6.05866C20.2574 7.33892 20.696 8.4215 21.5753 9.30827C22.4545 10.195 23.5333 10.6375 24.8136 10.6375C25.6778 10.6375 26.4478 10.4323 27.1256 10.0237C27.8034 9.61516 28.3362 9.06352 28.7222 8.37067L29.9949 9.11058C29.5167 10.035 28.8144 10.7674 27.89 11.3077C26.9656 11.8481 25.9395 12.1173 24.8136 12.1173" fill="black" fill-opacity="0.5"/>
<path d="M39.4079 0.276855H40.9348V11.8425H39.4079V10.0389C38.5437 11.4264 37.2484 12.1212 35.5219 12.1212C34.1193 12.1212 33.0122 11.6938 32.2026 10.8371C31.3931 9.9805 30.9883 8.82826 30.9883 7.37855V0.276855H32.5152V7.37855C32.5152 8.41218 32.7882 9.21423 33.3361 9.7847C33.8839 10.3552 34.6577 10.6413 35.6612 10.6413C36.7721 10.6413 37.6739 10.2912 38.3667 9.58889C39.0615 8.88663 39.4079 7.80405 39.4079 6.33928V0.276855Z" fill="black" fill-opacity="0.5"/>
<path d="M52.569 0.278646H54.0959V11.8424H52.569V9.57562C51.5052 11.272 49.9482 12.1192 47.896 12.1192C46.2449 12.1192 44.8385 11.5337 43.6749 10.3607C42.5114 9.18966 41.9277 7.75501 41.9277 6.05866C41.9277 4.36231 42.5095 2.92954 43.6749 1.7566C44.8403 0.585532 46.2467 0 47.8979 0C49.9482 0 51.5052 0.849116 52.569 2.54358V0.278646ZM44.7744 9.31015C45.6537 10.1969 46.7325 10.6394 48.0128 10.6394C49.293 10.6394 50.3718 10.1969 51.2511 9.31015C52.1303 8.42338 52.569 7.34081 52.569 6.06054C52.569 4.78028 52.1284 3.6977 51.2511 2.81093C50.3718 1.92416 49.293 1.48172 48.0128 1.48172C46.7325 1.48172 45.6537 1.92604 44.7744 2.81093C43.8952 3.6977 43.4565 4.78028 43.4565 6.06054C43.4565 7.34081 43.8952 8.42338 44.7744 9.31015Z" fill="black" fill-opacity="0.5"/>
<mask id="mask0_172_5820" style="mask-type:luminance" maskUnits="userSpaceOnUse" x="3" y="6" width="11" height="6">
<path d="M11.0967 6.06055C11.0967 7.34458 10.2721 8.43657 9.12362 8.83382C8.8205 8.94114 8.49667 8.99951 8.15966 8.99951H3.97433L3.75781 11.8424H8.15966C8.33099 11.8424 8.5042 11.8368 8.67365 11.8199C11.6258 11.5582 13.9397 9.08046 13.9416 6.06055H11.0967Z" fill="white"/>
</mask>
<g mask="url(#mask0_172_5820)">
<mask id="mask1_172_5820" style="mask-type:luminance" maskUnits="userSpaceOnUse" x="1" y="1" width="16" height="15">
<path d="M11.849 1.94685L1.42188 7.24829L5.84956 15.9569L16.2767 10.6554L11.849 1.94685Z" fill="white"/>
</mask>
<g mask="url(#mask1_172_5820)">
<path d="M14.9446 15.956L7.82031 1.94653H16.2757V15.956H14.9446Z" fill="black" fill-opacity="0.5"/>
<path d="M6.50716 15.956L1.42188 5.95489V1.94653H7.82131L14.9456 15.956H6.50716Z" fill="black" fill-opacity="0.5"/>
<path d="M6.47139 15.9562L1.42188 6.02286V5.95508L6.50716 15.9562H6.47139Z" fill="black" fill-opacity="0.5"/>
<path d="M1.42188 6.02295L6.47139 15.9563H1.42188V6.02295Z" fill="black" fill-opacity="0.5"/>
</g>
</g>
<path d="M13.9436 5.97762V6.14707L11.0969 6.17719C11.0969 5.36573 10.7693 4.51473 10.2365 3.9838C9.70553 3.45098 8.96938 3.1215 8.1598 3.1215H6.73456L4.96667 14.8886H0.628835L5.6614 3.1215H3.68452C3.15924 3.1215 2.66596 3.37191 2.35531 3.79741L1.70953 4.68041H0L2.16515 1.71698C2.49463 1.26324 2.9239 0.903634 3.41153 0.658878C3.89727 0.412239 4.44139 0.278564 5.00056 0.278564H8.05625C11.2343 0.278564 13.8984 2.79955 13.9436 5.97762Z" fill="black" fill-opacity="0.5"/>
<path d="M55.4609 10.176C55.4609 9.16876 56.1877 8.40625 57.2307 8.40625C58.2738 8.40625 59.0005 9.13299 59.0005 10.176C59.0005 11.2191 58.2756 11.9458 57.2307 11.9458C56.1858 11.9458 55.4609 11.2191 55.4609 10.176ZM58.7143 10.176C58.7143 9.31938 58.1062 8.66983 57.2307 8.66983C56.3552 8.66983 55.7471 9.28737 55.7471 10.176C55.7471 11.0647 56.3552 11.6822 57.2307 11.6822C58.1062 11.6822 58.7143 11.0647 58.7143 10.176ZM56.4362 10.1666C56.4362 9.65827 56.7713 9.30997 57.2533 9.30997C57.6807 9.30997 57.98 9.57355 58.0252 9.98587H57.7485C57.7033 9.72793 57.5131 9.56037 57.2533 9.56037C56.9445 9.56037 56.728 9.80889 56.728 10.1685C56.728 10.5281 56.9539 10.7898 57.2778 10.7898C57.5225 10.7898 57.7089 10.6222 57.7504 10.3587H58.0271C57.9819 10.771 57.6826 11.0383 57.2702 11.0383C56.7807 11.0383 56.44 10.6806 56.44 10.1666" fill="black" fill-opacity="0.5"/>
</svg>
